HIERARCHY
ROOT Hips
{
	OFFSET 0.000000 71.427986 0.000000
	CHANNELS 6 Xposition Yposition Zposition Xrotation Yrotation Zrotation
	JOINT Pelvis
	{
		OFFSET 0.000000 0.000000 0.000000
		CHANNELS 3 Xrotation Yrotation Zrotation
		JOINT LeftUpLeg
		{
			OFFSET 6.797100 -2.508499 -1.318700
			CHANNELS 3 Xrotation Yrotation Zrotation
			JOINT LeftLeg
			{
				OFFSET 0.069008 -29.241863 0.690200
				CHANNELS 3 Xrotation Yrotation Zrotation
				JOINT LeftFoot
				{
					OFFSET -0.069008 -29.568123 -0.266800
					CHANNELS 3 Xrotation Yrotation Zrotation
					JOINT LeftToeBase
					{
						OFFSET 3.145500 -8.631000 16.059900
						CHANNELS 3 Xrotation Yrotation Zrotation
						End Site
						{
							OFFSET 0.000000 18.501587 0.000000
						}
					}
				}
			}
			JOINT Left_ShortSleeve
			{
				OFFSET 0.265923 -10.480953 1.153800
				CHANNELS 3 Xrotation Yrotation Zrotation
				End Site
				{
					OFFSET 1.725763 19.823879 0.000000
				}
			}
		}
		JOINT RightUpLeg
		{
			OFFSET -6.797100 -2.508499 -1.318700
			CHANNELS 3 Xrotation Yrotation Zrotation
			JOINT RightLeg
			{
				OFFSET -0.082453 -29.241932 0.688000
				CHANNELS 3 Xrotation Yrotation Zrotation
				JOINT RightFoot
				{
					OFFSET 0.082453 -29.568058 -0.264600
					CHANNELS 3 Xrotation Yrotation Zrotation
					JOINT RightToeBase
					{
						OFFSET -3.115300 -8.682800 16.113400
						CHANNELS 3 Xrotation Yrotation Zrotation
						End Site
						{
							OFFSET 0.000000 18.567114 0.000000
						}
					}
				}
			}
			JOINT Right_ShortSleeve
			{
				OFFSET -0.265923 -10.480953 1.153800
				CHANNELS 3 Xrotation Yrotation Zrotation
				End Site
				{
					OFFSET -1.725766 19.823910 0.000000
				}
			}
		}
	}
	JOINT Spine
	{
		OFFSET 0.000000 13.368103 0.470500
		CHANNELS 3 Xrotation Yrotation Zrotation
		JOINT Spine1
		{
			OFFSET 0.147000 13.837402 0.538800
			CHANNELS 3 Xrotation Yrotation Zrotation
			JOINT Spine2
			{
				OFFSET 0.168000 16.242897 -1.435500
				CHANNELS 3 Xrotation Yrotation Zrotation
				JOINT Neck
				{
					OFFSET 0.217200 18.631500 -1.679100
					CHANNELS 3 Xrotation Yrotation Zrotation
					JOINT Head
					{
						OFFSET 0.000000 6.599396 1.385900
						CHANNELS 3 Xrotation Yrotation Zrotation
						JOINT Hat
						{
							OFFSET -0.532200 27.220596 -10.096100
							CHANNELS 3 Xrotation Yrotation Zrotation
							End Site
							{
								OFFSET 0.000000 22.029861 0.000000
							}
						}
						JOINT HairD
						{
							OFFSET -10.777400 17.437393 -1.325900
							CHANNELS 3 Xrotation Yrotation Zrotation
							JOINT HairD1
							{
								OFFSET -3.290299 -11.051193 1.062200
								CHANNELS 3 Xrotation Yrotation Zrotation
								End Site
								{
									OFFSET 0.000000 11.579437 0.000000
								}
							}
						}
						JOINT HairB
						{
							OFFSET -10.777400 17.437393 1.467900
							CHANNELS 3 Xrotation Yrotation Zrotation
							JOINT HairB1
							{
								OFFSET -1.561200 -12.956299 3.590200
								CHANNELS 3 Xrotation Yrotation Zrotation
								End Site
								{
									OFFSET 0.000000 13.534866 0.000000
								}
							}
						}
						JOINT HairA
						{
							OFFSET 9.713100 17.437393 1.467900
							CHANNELS 3 Xrotation Yrotation Zrotation
							JOINT HairA1
							{
								OFFSET 1.561200 -12.956299 3.590200
								CHANNELS 3 Xrotation Yrotation Zrotation
								End Site
								{
									OFFSET 0.000000 13.534866 0.000000
								}
							}
						}
						JOINT HairC
						{
							OFFSET 9.713100 17.437393 -1.325900
							CHANNELS 3 Xrotation Yrotation Zrotation
							JOINT HairC1
							{
								OFFSET 3.290300 -11.051193 1.062200
								CHANNELS 3 Xrotation Yrotation Zrotation
								End Site
								{
									OFFSET 0.000000 11.579437 0.000000
								}
							}
						}
					}
				}
				JOINT LeftShoulder
				{
					OFFSET 5.101800 15.108002 -2.763700
					CHANNELS 3 Xrotation Yrotation Zrotation
					JOINT LeftArm
					{
						OFFSET 9.825497 2.506317 -1.597400
						CHANNELS 3 Xrotation Yrotation Zrotation
						JOINT LeftForeArm
						{
							OFFSET 21.966244 0.000000 0.000000
							CHANNELS 3 Xrotation Yrotation Zrotation
							JOINT LeftHand
							{
								OFFSET 33.879036 0.000000 0.000000
								CHANNELS 3 Xrotation Yrotation Zrotation
								JOINT LeftHandThumb1
								{
									OFFSET 6.715286 -2.359680 3.363841
									CHANNELS 3 Xrotation Yrotation Zrotation
									JOINT LeftHandThumb2
									{
										OFFSET 2.507072 -1.447464 1.447461
										CHANNELS 3 Xrotation Yrotation Zrotation
										JOINT LeftHandThumb3
										{
											OFFSET 2.898338 -1.673355 1.673357
											CHANNELS 3 Xrotation Yrotation Zrotation
											End Site
											{
												OFFSET -0.295959 3.727692 -0.131651
											}
										}
									}
								}
								JOINT LeftHandIndex1
								{
									OFFSET 14.190811 -0.254547 3.840278
									CHANNELS 3 Xrotation Yrotation Zrotation
									JOINT LeftHandIndex2
									{
										OFFSET 3.551727 0.000000 -0.000000
										CHANNELS 3 Xrotation Yrotation Zrotation
										JOINT LeftHandIndex3
										{
											OFFSET 2.894196 0.000000 0.000000
											CHANNELS 3 Xrotation Yrotation Zrotation
											End Site
											{
												OFFSET -1.000603 2.690872 0.366626
											}
										}
									}
								}
								JOINT LeftHandMiddle1
								{
									OFFSET 13.776489 0.000000 0.000000
									CHANNELS 3 Xrotation Yrotation Zrotation
									JOINT LeftHandMiddle2
									{
										OFFSET 3.438232 0.000000 0.000000
										CHANNELS 3 Xrotation Yrotation Zrotation
										JOINT LeftHandMiddle3
										{
											OFFSET 3.691551 0.000000 0.000000
											CHANNELS 3 Xrotation Yrotation Zrotation
											End Site
											{
												OFFSET -1.082298 3.499527 0.457670
											}
										}
									}
								}
								JOINT LeftHandRing1
								{
									OFFSET 13.966164 -0.268127 -3.067488
									CHANNELS 3 Xrotation Yrotation Zrotation
									JOINT LeftHandRing2
									{
										OFFSET 3.162567 0.000000 0.000000
										CHANNELS 3 Xrotation Yrotation Zrotation
										JOINT LeftHandRing3
										{
											OFFSET 3.324348 0.000000 0.000000
											CHANNELS 3 Xrotation Yrotation Zrotation
											End Site
											{
												OFFSET -0.861900 3.184998 0.405154
											}
										}
									}
								}
								JOINT LeftHandPinky1
								{
									OFFSET 13.131393 -0.168503 -5.746925
									CHANNELS 3 Xrotation Yrotation Zrotation
									JOINT LeftHandPinky2
									{
										OFFSET 2.849182 0.000000 0.000000
										CHANNELS 3 Xrotation Yrotation Zrotation
										JOINT LeftHandPinky3
										{
											OFFSET 2.805038 0.000000 0.000000
											CHANNELS 3 Xrotation Yrotation Zrotation
											End Site
											{
												OFFSET -0.882500 2.642609 0.325652
											}
										}
									}
								}
							}
							JOINT Left_Sleeve
							{
								OFFSET 6.592125 -0.646545 0.805568
								CHANNELS 3 Xrotation Yrotation Zrotation
								End Site
								{
									OFFSET -0.000179 20.275787 -0.000000
								}
							}
						}
					}
				}
				JOINT RightShoulder
				{
					OFFSET -5.731700 15.108002 -2.763700
					CHANNELS 3 Xrotation Yrotation Zrotation
					JOINT RightArm
					{
						OFFSET -9.825497 2.506317 -1.597400
						CHANNELS 3 Xrotation Yrotation Zrotation
						JOINT RightForeArm
						{
							OFFSET -21.966242 0.000000 0.000000
							CHANNELS 3 Xrotation Yrotation Zrotation
							JOINT RightHand
							{
								OFFSET -33.879032 0.000000 0.000000
								CHANNELS 3 Xrotation Yrotation Zrotation
								JOINT RightHandThumb1
								{
									OFFSET -6.715286 -2.359680 3.363841
									CHANNELS 3 Xrotation Yrotation Zrotation
									JOINT RightHandThumb2
									{
										OFFSET -2.507072 -1.447464 1.447461
										CHANNELS 3 Xrotation Yrotation Zrotation
										JOINT RightHandThumb3
										{
											OFFSET -2.898338 -1.673355 1.673357
											CHANNELS 3 Xrotation Yrotation Zrotation
											End Site
											{
												OFFSET 0.295959 3.727692 -0.131651
											}
										}
									}
								}
								JOINT RightHandIndex1
								{
									OFFSET -14.190811 -0.254547 3.840278
									CHANNELS 3 Xrotation Yrotation Zrotation
									JOINT RightHandIndex2
									{
										OFFSET -3.551727 0.000000 -0.000000
										CHANNELS 3 Xrotation Yrotation Zrotation
										JOINT RightHandIndex3
										{
											OFFSET -2.894196 0.000000 0.000000
											CHANNELS 3 Xrotation Yrotation Zrotation
											End Site
											{
												OFFSET 1.000603 2.690872 0.366626
											}
										}
									}
								}
								JOINT RightHandMiddle1
								{
									OFFSET -13.776489 0.000000 0.000000
									CHANNELS 3 Xrotation Yrotation Zrotation
									JOINT RightHandMiddle2
									{
										OFFSET -3.438232 0.000000 0.000000
										CHANNELS 3 Xrotation Yrotation Zrotation
										JOINT RightHandMiddle3
										{
											OFFSET -3.691551 0.000000 0.000000
											CHANNELS 3 Xrotation Yrotation Zrotation
											End Site
											{
												OFFSET 1.082298 3.499527 0.457670
											}
										}
									}
								}
								JOINT RightHandRing1
								{
									OFFSET -13.966164 -0.268127 -3.067488
									CHANNELS 3 Xrotation Yrotation Zrotation
									JOINT RightHandRing2
									{
										OFFSET -3.162567 0.000000 0.000000
										CHANNELS 3 Xrotation Yrotation Zrotation
										JOINT RightHandRing3
										{
											OFFSET -3.324348 0.000000 0.000000
											CHANNELS 3 Xrotation Yrotation Zrotation
											End Site
											{
												OFFSET 0.861900 3.184998 0.405154
											}
										}
									}
								}
								JOINT RightHandPinky1
								{
									OFFSET -13.131393 -0.168503 -5.746925
									CHANNELS 3 Xrotation Yrotation Zrotation
									JOINT RightHandPinky2
									{
										OFFSET -2.849182 0.000000 0.000000
										CHANNELS 3 Xrotation Yrotation Zrotation
										JOINT RightHandPinky3
										{
											OFFSET -2.805038 0.000000 0.000000
											CHANNELS 3 Xrotation Yrotation Zrotation
											End Site
											{
												OFFSET 0.882500 2.642609 0.325652
											}
										}
									}
								}
							}
							JOINT Right_Sleeve
							{
								OFFSET -6.592125 -0.646545 0.805568
								CHANNELS 3 Xrotation Yrotation Zrotation
								End Site
								{
									OFFSET 0.000179 20.275787 -0.000000
								}
							}
						}
					}
				}
				JOINT Bind_Right_JacketString
				{
					OFFSET -3.534800 11.969597 7.200700
					CHANNELS 3 Xrotation Yrotation Zrotation
					JOINT Bind_Right_JacketString1
					{
						OFFSET -0.319900 -6.102600 2.794100
						CHANNELS 3 Xrotation Yrotation Zrotation
						End Site
						{
							OFFSET 0.000000 6.719452 0.000000
						}
					}
				}
				JOINT Bind_Left_JacketString
				{
					OFFSET 2.904800 11.969597 7.200700
					CHANNELS 3 Xrotation Yrotation Zrotation
					JOINT Bind_Left_JacketString1
					{
						OFFSET 0.364800 -5.904503 3.186800
						CHANNELS 3 Xrotation Yrotation Zrotation
						End Site
						{
							OFFSET 0.000000 6.719513 0.000000
						}
					}
				}
				JOINT HairE
				{
					OFFSET 5.915200 17.612701 -11.592200
					CHANNELS 3 Xrotation Yrotation Zrotation
					JOINT HairE1
					{
						OFFSET 0.289200 -7.171898 -1.284500
						CHANNELS 3 Xrotation Yrotation Zrotation
						End Site
						{
							OFFSET 0.000000 7.291756 0.000000
						}
					}
				}
				JOINT HairF
				{
					OFFSET -0.864800 17.612701 -11.592200
					CHANNELS 3 Xrotation Yrotation Zrotation
					JOINT HairF1
					{
						OFFSET 0.000000 -14.087097 -2.127501
						CHANNELS 3 Xrotation Yrotation Zrotation
						End Site
						{
							OFFSET 0.000000 14.246841 0.000000
						}
					}
				}
				JOINT HairG
				{
					OFFSET -8.087700 17.612701 -11.592200
					CHANNELS 3 Xrotation Yrotation Zrotation
					JOINT HairG1
					{
						OFFSET -0.293600 -6.081398 -0.910100
						CHANNELS 3 Xrotation Yrotation Zrotation
						End Site
						{
							OFFSET 0.000000 6.156120 0.000000
						}
					}
				}
			}
		}
	}
	JOINT Pouch
	{
		OFFSET 0.000000 4.394501 10.847300
		CHANNELS 3 Xrotation Yrotation Zrotation
		End Site
		{
			OFFSET 0.000000 21.880577 0.000000
		}
	}
	JOINT Bag
	{
		OFFSET -13.229000 4.813004 -0.593300
		CHANNELS 3 Xrotation Yrotation Zrotation
		End Site
		{
			OFFSET 0.000000 21.880577 0.000000
		}
	}
	JOINT OccupyGuyFacialAnim_Joint
	{
		OFFSET 1.000000 -70.206398 -1.655000
		CHANNELS 3 Xrotation Yrotation Zrotation
		End Site
		{
			OFFSET 0.000000 21.880577 0.000000
		}
	}
}
MOTION
Frames: 4
Frame Time: 0.033333
-103.461433 51.225655 1.370859 36.106562 -46.390385 25.142109 0.000002 0.000001 -0.000001 -75.720973 -11.765283 42.949234 93.207896 2.829715 3.031527 -1.508800 -0.728603 -16.542966 0.000000 -0.000001 -0.000003 -0.000003 0.000000 -0.000000 -79.633387 9.964165 -4.822064 87.250906 -8.297373 -2.423742 -28.327878 -3.472017 18.842103 0.000000 -0.000000 0.000000 0.000001 0.000003 0.000002 23.806688 -1.127091 -0.386665 7.773666 -3.318409 0.438914 7.786307 -3.188820 0.605676 -19.438831 27.857229 -14.542957 -29.941490 20.996560 4.996231 -0.000000 0.000000 0.000000 -0.000000 0.000000 0.000000 -0.000000 0.000000 0.000001 -0.000000 0.000000 0.000000 -0.000001 0.000001 0.000000 -0.000000 0.000000 0.000000 -0.000001 0.000001 0.000000 -0.000000 0.000000 0.000000 -0.000000 0.000000 0.000000 7.418660 -8.325972 -9.893973 -76.765739 -3.967137 -30.654306 40.808464 -30.813511 32.759069 -4.452555 3.124679 9.208727 40.109951 -15.296992 -0.360032 5.639635 28.097532 11.338866 0.000004 0.000001 -0.000000 6.881613 2.840531 -61.140500 8.247839 7.639954 -89.898321 0.000002 0.000000 -0.000002 -2.346175 4.689436 -62.655067 8.754233 9.896994 -87.051348 0.000002 0.000001 -0.000006 -9.042922 10.045762 -60.766110 8.524204 9.508798 -66.893807 -0.000001 0.000000 -0.000000 -17.947273 14.755123 -51.486079 8.868907 8.666915 -84.812419 -0.000002 -0.000000 -0.000001 -0.000000 -0.000000 -0.000001 7.352623 17.258010 23.664526 -8.701255 6.709547 22.223132 -29.460839 21.692667 11.463855 -11.073772 -1.046760 -15.397512 -1.979736 -6.638755 10.623468 2.575415 -24.538462 -8.854932 0.000002 -0.000001 -0.000001 -0.106608 0.523195 3.082233 0.020677 -0.091528 7.413601 0.000003 -0.000001 -0.000002 0.302049 -5.853212 4.372340 1.432946 -4.206253 26.107307 0.000001 -0.000001 0.000003 1.208796 -11.743605 5.516737 1.797964 -3.769050 28.227007 0.000001 -0.000003 0.000002 2.067132 -18.274487 12.571914 3.175122 -1.248815 20.233616 0.000003 -0.000002 -0.000003 0.000001 -0.000002 -0.000002 -0.000001 0.000000 0.000002 -0.000000 0.000001 -0.000001 -0.000001 0.000000 0.000002 -0.000001 0.000000 0.000002 -0.000001 0.000000 0.000002 -0.000000 0.000001 -0.000000 -0.000001 0.000000 0.000002 -0.000001 0.000000 0.000002 -0.000001 0.000000 0.000002 -0.000000 0.000001 -0.000000 0.000002 0.000001 -0.000001 0.000002 0.000001 -0.000001 0.000002 0.000001 -0.000001 
-107.142128 51.512329 0.548330 36.451292 -46.653938 25.933468 0.000001 0.000003 -0.000000 -79.536699 -10.632900 40.002649 93.927266 3.665192 2.072833 -5.069947 -0.865497 -10.957628 -0.000000 -0.000000 -0.000000 0.000000 -0.000003 0.000000 -78.188112 7.512071 -1.898360 89.475690 -9.680676 -2.488530 -32.824229 -3.713292 16.005585 -0.000000 -0.000001 0.000000 0.000003 0.000000 -0.000004 23.949377 -1.421453 -1.385235 7.794869 -3.141054 0.360885 7.820418 -3.058373 0.513316 -19.635110 27.641280 -14.525311 -30.113747 20.674209 5.180806 -0.000000 0.000000 -0.000001 -0.000000 0.000000 -0.000001 -0.000000 0.000000 -0.000000 -0.000000 0.000000 -0.000001 -0.000001 -0.000000 -0.000001 -0.000000 0.000000 -0.000001 -0.000001 -0.000000 -0.000001 -0.000000 0.000000 -0.000001 -0.000000 0.000000 -0.000001 7.697207 -8.615590 -9.523315 -77.178242 -3.973726 -30.422148 40.691357 -30.578508 32.853907 -4.495650 3.277018 8.809661 40.109948 -15.296992 -0.360032 5.639634 28.097528 11.338864 -0.000001 -0.000000 -0.000001 6.881613 2.840533 -61.140500 8.247838 7.639953 -89.898328 0.000002 -0.000000 -0.000000 -2.346172 4.689437 -62.655067 8.754231 9.896994 -87.051348 0.000001 0.000002 -0.000003 -9.042922 10.045761 -60.766103 8.524204 9.508795 -66.893807 -0.000002 0.000000 -0.000002 -17.947271 14.755119 -51.486079 8.868902 8.666918 -84.812412 -0.000001 0.000002 0.000001 -0.000000 0.000001 -0.000004 7.232750 17.709181 24.072657 -12.390413 5.195883 20.620766 -30.174201 21.593331 11.866600 -7.387952 -2.360002 -13.097422 -2.164944 -6.366424 10.677892 2.469002 -24.167205 -8.811543 -0.000002 -0.000001 0.000002 -0.106687 0.525081 1.900095 0.018966 -0.091898 6.247545 0.000001 -0.000002 -0.000000 0.325865 -5.885856 3.469159 1.432586 -4.201961 25.072176 0.000004 -0.000003 0.000001 1.209076 -11.745449 4.829358 1.799034 -3.767186 27.538448 -0.000000 -0.000001 -0.000002 2.101378 -18.718878 11.941312 3.267184 -1.684772 19.522947 0.000000 0.000001 0.000001 -0.000001 0.000003 0.000002 -0.000000 0.000002 0.000001 0.000000 0.000000 0.000001 -0.000000 0.000002 -0.000000 -0.000000 0.000002 -0.000000 -0.000000 0.000002 0.000001 0.000000 0.000000 0.000001 -0.000000 0.000002 -0.000000 -0.000000 0.000002 -0.000000 -0.000000 0.000002 0.000001 0.000000 0.000000 0.000001 0.000001 0.000003 -0.000000 0.000001 0.000003 -0.000000 0.000001 0.000003 -0.000000 
-110.659355 51.785889 -0.237991 36.645396 -46.736123 26.656896 -0.000000 0.000002 -0.000000 -85.001957 -6.652435 36.498181 93.415302 6.123242 0.389629 -10.300940 -1.468868 -3.852665 -0.000001 0.000002 0.000000 -0.000000 -0.000003 0.000000 -76.108620 5.236483 0.761968 90.821504 -10.527979 -2.504875 -36.909656 -4.305054 12.947185 0.000000 0.000001 -0.000000 0.000001 -0.000001 -0.000002 24.282157 -1.784416 -2.403440 7.811363 -2.940377 0.279098 7.836209 -2.839635 0.402854 -19.942166 27.354199 -14.367264 -30.110855 20.396763 5.155667 -0.000000 -0.000000 0.000000 -0.000000 -0.000000 0.000000 -0.000000 -0.000000 0.000001 -0.000000 -0.000000 -0.000001 0.000000 0.000000 -0.000001 -0.000000 -0.000000 -0.000001 0.000000 0.000000 -0.000001 -0.000000 -0.000000 0.000000 -0.000000 -0.000000 0.000000 8.077816 -9.069642 -8.963003 -77.806694 -3.843635 -29.830001 39.974792 -30.078019 32.115768 -4.485789 2.537507 8.662112 40.109951 -15.296989 -0.360032 5.639637 28.097528 11.338859 0.000007 0.000001 0.000001 6.881613 2.840534 -61.140500 8.247840 7.639954 -89.898315 0.000002 0.000000 -0.000000 -2.346172 4.689436 -62.655067 8.754234 9.896994 -87.051355 0.000002 0.000001 -0.000003 -9.042919 10.045762 -60.766103 8.524202 9.508794 -66.893807 0.000000 0.000001 -0.000005 -17.947266 14.755119 -51.486082 8.868904 8.666915 -84.812412 0.000001 -0.000000 -0.000001 0.000000 0.000000 0.000000 7.286676 17.813994 24.521807 -16.071703 3.942606 19.222826 -31.067033 21.760317 12.511983 -3.733592 -3.043487 -10.890615 -2.298415 -6.170147 10.717548 2.393983 -23.905440 -8.780490 -0.000002 -0.000001 0.000000 -0.100983 0.526635 1.056440 0.020007 -0.092051 5.406423 0.000003 -0.000000 0.000002 0.342129 -5.909468 2.828193 1.430106 -4.196077 24.334330 0.000002 -0.000001 -0.000006 1.212974 -11.747869 4.342336 1.801521 -3.766195 27.051791 0.000001 -0.000000 0.000001 2.119599 -19.037419 11.491978 3.326346 -1.997975 19.019616 -0.000001 -0.000001 -0.000003 0.000002 -0.000003 -0.000002 0.000003 -0.000001 -0.000000 0.000001 -0.000001 -0.000000 0.000003 -0.000001 -0.000000 0.000003 -0.000001 -0.000000 0.000003 -0.000001 -0.000000 0.000001 -0.000001 -0.000000 0.000003 -0.000001 -0.000000 0.000003 -0.000001 -0.000000 0.000003 -0.000001 -0.000000 0.000001 -0.000001 -0.000000 -0.000000 0.000002 -0.000000 -0.000000 0.000002 -0.000000 -0.000000 0.000002 -0.000000 
-114.088226 52.018578 -1.004463 36.791862 -46.760387 27.329757 -0.000001 0.000002 -0.000001 -90.260724 -0.076714 33.335715 89.795712 9.744326 -1.790333 -13.687825 -2.334432 1.682714 -0.000000 -0.000001 -0.000001 -0.000002 0.000000 -0.000001 -73.541419 3.110259 3.520098 91.321036 -13.171271 -2.664650 -40.537009 -3.591029 11.093205 -0.000000 0.000001 0.000000 -0.000000 -0.000002 -0.000006 24.587586 -2.196418 -3.392629 7.827047 -2.733466 0.196302 7.853871 -2.626794 0.293280 -20.226644 27.079248 -14.243499 -30.124679 20.116432 5.161113 0.000001 0.000000 -0.000000 0.000001 0.000000 -0.000000 0.000001 0.000000 0.000000 0.000001 0.000000 0.000000 0.000002 -0.000000 0.000000 0.000001 0.000000 0.000000 0.000002 -0.000000 0.000000 0.000001 0.000000 -0.000000 0.000001 0.000000 -0.000000 8.454394 -9.467658 -8.419029 -78.775345 -3.906929 -28.697590 38.456530 -28.852666 30.074884 -4.383411 0.668077 8.677419 40.109948 -15.296989 -0.360029 5.639628 28.097530 11.338865 0.000007 0.000001 -0.000000 6.881615 2.840532 -61.140493 8.247841 7.639954 -89.898315 0.000000 0.000002 -0.000002 -2.346172 4.689435 -62.655067 8.754234 9.896994 -87.051348 0.000002 0.000000 -0.000001 -9.042919 10.045759 -60.766103 8.524202 9.508796 -66.893807 -0.000001 -0.000001 0.000003 -17.947268 14.755121 -51.486079 8.868905 8.666913 -84.812412 -0.000000 0.000001 -0.000000 0.000000 -0.000000 -0.000001 7.308956 17.957611 24.959586 -19.574953 2.963226 17.774237 -31.906109 21.712278 13.034589 -0.471552 -3.483011 -8.720479 -2.346796 -6.099478 10.731861 2.364961 -23.806561 -8.766390 0.000002 -0.000001 0.000000 -0.098921 0.528881 0.734252 0.021479 -0.090578 5.088431 -0.000003 -0.000004 -0.000000 0.346545 -5.918717 2.582879 1.427241 -4.193825 24.052499 0.000004 0.000003 0.000005 1.214531 -11.747701 4.156558 1.802525 -3.764745 26.865615 -0.000001 0.000000 -0.000003 2.125116 -19.159787 11.320307 3.349755 -2.117853 18.826296 0.000001 -0.000000 0.000000 0.000000 -0.000002 -0.000002 -0.000000 -0.000001 -0.000001 0.000002 0.000000 0.000001 -0.000000 -0.000001 -0.000001 -0.000000 -0.000001 -0.000001 -0.000000 -0.000001 -0.000001 0.000002 0.000000 0.000002 -0.000000 -0.000001 -0.000001 -0.000000 -0.000001 -0.000001 -0.000000 -0.000001 -0.000001 0.000002 0.000000 0.000002 -0.000001 0.000002 -0.000001 -0.000001 0.000002 -0.000001 -0.000001 0.000002 -0.000001 
